<svg xmlns="http://www.w3.org/2000/svg" viewBox="0 0 400 300" width="400" height="300" role="img" aria-label="面条插画">
  <defs>
    <linearGradient id="noodle-bg" x1="0" y1="0" x2="1" y2="1">
      <stop offset="0%" stop-color="#FFEAF3"/>
      <stop offset="100%" stop-color="#D9F0FF"/>
    </linearGradient>
    <linearGradient id="noodle-bowl" x1="0" y1="0" x2="0" y2="1">
      <stop offset="0%" stop-color="#FF8FB8"/>
      <stop offset="100%" stop-color="#FF6B9D"/>
    </linearGradient>
  </defs>
  <rect width="400" height="300" fill="url(#noodle-bg)"/>
  <circle cx="322" cy="66" r="34" fill="#FFFFFF" opacity="0.65"/>
  <circle cx="64" cy="238" r="46" fill="#FFFFFF" opacity="0.5"/>
  <path d="M330 190l4 10 10 4-10 4-4 10-4-10-10-4 10-4z" fill="#FFC94D"/>
  <g fill="none" stroke="#9ED8F5" stroke-width="7" stroke-linecap="round">
    <path d="M168 96c14-16-12-30 2-46"/>
    <path d="M204 88c14-16-12-30 2-46"/>
    <path d="M240 96c14-16-12-30 2-46"/>
  </g>
  <path d="M120 150h160l-14 78a34 34 0 0 1-34 28H168a34 34 0 0 1-34-28z" fill="url(#noodle-bowl)" stroke="#FFFFFF" stroke-width="5"/>
  <path d="M112 146h176a10 10 0 0 1 0 20H112a10 10 0 0 1 0-20z" fill="#FFFFFF" stroke="#FFFFFF" stroke-width="4"/>
  <path d="M132 168h136" stroke="#FFE1EC" stroke-width="8" stroke-linecap="round" fill="none"/>
  <g stroke="#4B3A55" stroke-width="5" stroke-linecap="round" fill="none">
    <path d="M232 132 300 76"/>
    <path d="M244 142 312 92"/>
  </g>
  <g stroke="#4B3A55" stroke-width="4" stroke-linecap="round">
    <path d="M172 200c5 7 15 7 20 0"/>
    <path d="M216 200c5 7 15 7 20 0"/>
  </g>
  <g fill="#FFD1E1">
    <ellipse cx="164" cy="216" rx="11" ry="6"/>
    <ellipse cx="244" cy="216" rx="11" ry="6"/>
  </g>
</svg>
